<?xml version="1.0" encoding="UTF-8"?>
<svg class="stroke" fill="none" stroke-linecap="square" stroke-width="28" style="height:100%;padding-bottom:0.35rem" version="1" viewBox="0 0 300 300" xmlns="http://www.w3.org/2000/svg" xmlns:cc="http://creativecommons.org/ns#" xmlns:dc="http://purl.org/dc/elements/1.1/" xmlns:rdf="http://www.w3.org/1999/02/22-rdf-syntax-ns#">
<metadata>
<rdf:RDF>
<cc:Work rdf:about="">
<dc:format>image/svg+xml</dc:format>
<dc:type rdf:resource="http://purl.org/dc/dcmitype/StillImage"/>
<dc:title/>
</cc:Work>
</rdf:RDF>
</metadata>
<path d="m163.65 14.894-30.908 17.763 8.8802 15.455 26.36 45.866h-13.451c-13.514 0-26.375 2.9057-38.023 8.087-0.80497 0.35339-1.6067 0.71579-2.4022 1.0917-0.21747 0.10415-0.43499 0.20757-0.65153 0.31334-16.466 7.9346-30.799 20.684-40.572 37.622l-0.0075 0.0127-63.669 110.78-8.8802 15.455 30.908 17.763 8.8827-15.453 26.243-45.662 6.5228 11.31c9.7998 16.986 24.186 29.762 40.711 37.692 12.397 6.0295 26.289 9.4224 40.937 9.4224h145.15v-35.65h-70.114l6.6148-11.464c8.1891-14.194 12.225-29.689 12.513-45.063 0.40742-16.7-3.599-33.694-12.513-49.146l-63.646-110.75zm-9.119 114.73h3.7177c8.7087 0.57631 17.444 3.1119 25.571 7.801 8.4136 4.854 15.152 11.429 20.056 19.004l1.415 2.4619 8e-3 0.0128c5.3569 9.2853 7.9019 19.364 7.9228 29.289-0.0209 9.9252-2.566 20.004-7.9228 29.289l-1.4672 2.544c-4.8996 7.5457-11.623 14.095-20.011 18.934-8.1283 4.6894-16.865 7.2249-25.574 7.801h-3.7152c-14.01 0-26.8-4.8271-36.834-12.909-0.20941-0.17014-0.42432-0.33152-0.63165-0.50481-0.19061-0.15794-0.37346-0.32461-0.56201-0.48492-4.9444-4.241-9.2803-9.3843-12.74-15.381l-1.0643-1.8427c-4.3007-8.1699-6.7368-17.5-6.7368-27.447 0-9.922 2.4263-19.229 6.7068-27.384l1.0942-1.9049 2e-3 -6e-3c3.4556-5.9885 7.7851-11.126 12.722-15.363 0.19521-0.16608 0.3845-0.33879 0.58192-0.50233 0.20898-0.17463 0.42552-0.33836 0.63661-0.50978 10.033-8.0762 22.819-12.899 36.824-12.899z" color="#000000" color-rendering="auto" dominant-baseline="auto" fill="#000" image-rendering="auto" shape-rendering="auto" solid-color="#000000" style="font-feature-settings:normal;font-variant-alternates:normal;font-variant-caps:normal;font-variant-ligatures:normal;font-variant-numeric:normal;font-variant-position:normal;isolation:auto;mix-blend-mode:normal;shape-padding:0;text-decoration-color:#000000;text-decoration-line:none;text-decoration-style:solid;text-indent:0;text-orientation:mixed;text-transform:none;white-space:normal"/>
</svg>